<?xml version="1.0" standalone="no"?>
<!DOCTYPE svg PUBLIC "-//W3C//DTD SVG 20010904//EN"
 "http://www.w3.org/TR/2001/REC-SVG-20010904/DTD/svg10.dtd">
<svg version="1.0" xmlns="http://www.w3.org/2000/svg"
 width="194.000000pt" height="194.000000pt" viewBox="0 0 194.000000 194.000000"
 preserveAspectRatio="xMidYMid meet">
<metadata>
Created by potrace 1.11, written by Peter Selinger 2001-2013
</metadata>
<g transform="translate(0.000000,194.000000) scale(0.100000,-0.100000)"
fill="#000000" stroke="none">
<path d="M140 1400 c-40 -10 -49 -43 -49 -182 l-1 -127 -40 -42 c-65 -67 -63
-116 5 -139 l35 -12 1 -66 c2 -133 4 -143 28 -163 13 -11 38 -19 57 -19 27 0
34 -4 34 -20 0 -11 1 -23 3 -26 1 -4 -16 -13 -38 -21 -36 -12 -65 -36 -65 -54
0 -10 194 -8 207 2 6 6 14 33 18 60 7 50 11 55 50 61 17 3 22 -7 35 -62 l16
-65 102 -1 c81 -1 102 2 102 13 0 16 -57 53 -82 53 -19 0 -24 26 -9 48 4 7 25
15 46 17 38 3 53 17 66 60 3 11 12 18 20 16 8 -2 21 -5 30 -8 8 -2 25 4 37 14
19 16 22 30 26 144 5 113 3 129 -15 158 -12 19 -35 39 -58 48 l-38 15 0 130
c-1 184 18 172 -271 173 -125 1 -238 -2 -252 -5z m533 -490 c-3 -12 -8 -19
-11 -16 -5 6 5 36 12 36 2 0 2 -9 -1 -20z"/>
<path d="M899 1302 c-1 -64 -1 -161 0 -194 1 -21 6 -28 21 -28 18 0 20 7 20
61 0 57 1 60 23 57 20 -3 22 -9 22 -58 0 -49 3 -55 21 -58 21 -3 22 -1 20 130
-1 126 -2 133 -21 133 -17 0 -20 -7 -20 -52 0 -48 -2 -53 -22 -53 -21 0 -23 5
-23 53 0 46 -3 53 -20 54 -17 2 -20 -5 -21 -45z"/>
<path d="M1083 1342 c-22 -14 -30 -56 -28 -144 2 -99 12 -118 61 -118 60 0 67
19 65 174 -1 40 -6 65 -17 78 -17 18 -59 24 -81 10z m55 -130 c3 -87 2 -92
-18 -92 -11 0 -20 3 -21 8 -1 11 -1 144 0 165 1 12 7 17 19 15 14 -3 17 -17
20 -96z"/>
<path d="M1197 1329 c-4 -15 0 -19 19 -19 24 0 24 0 24 -115 0 -108 1 -115 20
-115 11 0 20 3 21 8 0 4 1 54 2 112 2 95 4 105 22 110 11 3 20 12 20 20 0 12
-14 15 -62 16 -52 1 -62 -2 -66 -17z"/>
<path d="M900 965 c-19 -23 -20 -206 -1 -228 17 -21 74 -22 92 -1 7 8 13 41
13 71 1 54 0 56 -26 60 -23 3 -28 0 -28 -17 0 -11 5 -20 10 -20 15 0 8 -69 -7
-75 -20 -7 -29 27 -27 104 2 79 9 98 30 80 8 -6 14 -19 14 -29 0 -20 27 -22
35 -2 3 8 -1 26 -8 40 -15 33 -75 43 -97 17z"/>
<path d="M1046 871 c-10 -60 -20 -119 -23 -130 -4 -16 -1 -21 15 -21 14 0 22
8 24 23 5 34 45 36 54 3 4 -17 13 -26 26 -26 19 0 20 16 3 110 -3 14 -7 41
-10 60 -13 86 -15 90 -44 90 -27 0 -28 -1 -45 -109z m50 41 c-2 -4 -1 -27 4
-52 9 -50 6 -62 -15 -54 -11 5 -13 15 -9 38 3 17 7 40 9 51 3 24 3 25 11 25 3
0 3 -3 0 -8z"/>
<path d="M1180 850 l0 -130 44 0 c44 0 75 18 77 43 8 118 1 194 -22 207 -5 4
-29 7 -54 9 l-45 2 0 -131z m80 0 c0 -83 -1 -90 -20 -90 -19 0 -20 7 -20 90 0
83 1 90 20 90 19 0 20 -7 20 -90z"/>
<path d="M1346 964 c-9 -8 -16 -32 -17 -52 -1 -20 -2 -59 -3 -85 -1 -27 4 -62
11 -78 10 -24 18 -29 46 -29 47 0 64 23 66 91 l2 57 -30 -2 c-22 0 -31 -6 -31
-18 0 -10 5 -18 10 -18 16 0 12 -67 -4 -73 -8 -3 -17 -3 -20 0 -8 8 -8 178 0
186 12 12 34 -6 34 -28 0 -31 34 -27 38 4 8 49 -66 82 -102 45z"/>
<path d="M1475 853 l0 -128 55 -3 c51 -3 56 -1 56 18 0 17 -6 20 -26 18 -34
-3 -47 7 -44 34 1 13 3 29 3 36 1 6 4 11 9 11 26 -4 42 3 42 20 0 15 -6 19
-27 18 -24 -2 -28 2 -28 28 0 27 4 30 38 35 67 9 42 40 -33 40 l-45 0 0 -127z"/>
<path d="M1600 960 c0 -12 4 -19 8 -16 24 15 33 -15 33 -117 0 -104 1 -107 22
-107 22 0 22 2 20 109 -2 106 -2 110 20 113 12 2 22 10 22 18 0 11 -15 16 -62
18 -58 3 -63 1 -63 -18z"/>
<path d="M1756 964 c-29 -28 -20 -75 24 -122 41 -44 51 -76 26 -85 -17 -7 -26
1 -26 23 0 9 -8 16 -20 16 -23 0 -27 -32 -7 -60 20 -27 77 -18 96 15 19 34 10
65 -34 114 -33 39 -44 68 -27 79 11 7 27 -6 35 -26 8 -23 38 -12 34 12 -7 47
-68 67 -101 34z"/>
</g>
</svg>
